ffmpeg version 4.1.3 Copyright (c) 2000-2019 the FFmpeg developers
  built with Apple LLVM version 10.0.1 (clang-1001.0.46.3)
  configuration: --prefix=/usr/local/Cellar/ffmpeg/4.1.3 --enable-shared --enable-pthreads --enable-version3 --enable-hardcoded-tables --enable-avresample --cc=clang --host-cflags='-I/Library/Java/JavaVirtualMachines/openjdk-12.jdk/Contents/Home/include -I/Library/Java/JavaVirtualMachines/openjdk-12.jdk/Contents/Home/include/darwin' --host-ldflags= --enable-ffplay --enable-gnutls --enable-gpl --enable-libaom --enable-libbluray --enable-libmp3lame --enable-libopus --enable-librubberband --enable-libsnappy --enable-libtesseract --enable-libtheora --enable-libvorbis --enable-libvpx --enable-libx264 --enable-libx265 --enable-libxvid --enable-lzma --enable-libfontconfig --enable-libfreetype --enable-frei0r --enable-libass --enable-libopencore-amrnb --enable-libopencore-amrwb --enable-libopenjpeg --enable-librtmp --enable-libspeex --enable-videotoolbox --disable-libjack --disable-indev=jack --enable-libaom --enable-libsoxr
  libavutil      56. 22.100 / 56. 22.100
  libavcodec     58. 35.100 / 58. 35.100
  libavformat    58. 20.100 / 58. 20.100
  libavdevice    58.  5.100 / 58.  5.100
  libavfilter     7. 40.101 /  7. 40.101
  libavresample   4.  0.  0 /  4.  0.  0
  libswscale      5.  3.100 /  5.  3.100
  libswresample   3.  3.100 /  3.  3.100
  libpostproc    55.  3.100 / 55.  3.100
Input #0, asf, from '../DataSet/TrainSet/14/2.wmv':
  Metadata:
    encoder         : Lavf53.31.100
  Duration: 00:00:31.95, start: 0.000000, bitrate: 470 kb/s
    Stream #0:0: Video: wmv1 (WMV1 / 0x31564D57), yuv420p, 640x360, 20 fps, 20 tbr, 1k tbn, 1k tbc
Stream mapping:
  Stream #0:0 -> #0:0 (wmv1 (native) -> mjpeg (native))
Press [q] to stop, [?] for help
[swscaler @ 0x1097c3000] deprecated pixel format used, make sure you did set range correctly
Output #0, image2, to '../DataSet/X_train/68/%d.jpg':
  Metadata:
    encoder         : Lavf58.20.100
    Stream #0:0: Video: mjpeg, yuvj420p(pc), 640x360, q=2-31, 200 kb/s, 30 fps, 30 tbn, 30 tbc
    Metadata:
      encoder         : Lavc58.35.100 mjpeg
    Side data:
      cpb: bitrate max/min/avg: 0/0/200000 buffer size: 0 vbv_delay: -1
frame=  255 fps=0.0 q=24.8 size=N/A time=00:00:08.50 bitrate=N/A speed=  17x    frame=  504 fps=503 q=24.8 size=N/A time=00:00:16.80 bitrate=N/A speed=16.8x    frame=  756 fps=503 q=24.8 size=N/A time=00:00:25.20 bitrate=N/A speed=16.8x    frame=  959 fps=508 q=24.8 Lsize=N/A time=00:00:31.96 bitrate=N/A speed=16.9x    
video:9643kB audio:0kB subtitle:0kB other streams:0kB global headers:0kB muxing overhead: unknown
